<?xml version="1.0" encoding="UTF-8" standalone="no"?>
<!-- Created with Inkscape (http://www.inkscape.org/) -->

<svg
   width="64"
   height="64"
   viewBox="0 0 16.933333 16.933333"
   version="1.1"
   id="svg5"
   inkscape:version="1.2.2 (732a01da63, 2022-12-09)"
   sodipodi:docname="circle_with_gaps.svg"
   inkscape:export-filename="circle_with_gaps.png"
   inkscape:export-xdpi="24"
   inkscape:export-ydpi="24"
   xmlns:inkscape="http://www.inkscape.org/namespaces/inkscape"
   xmlns:sodipodi="http://sodipodi.sourceforge.net/DTD/sodipodi-0.dtd"
   xmlns="http://www.w3.org/2000/svg"
   xmlns:svg="http://www.w3.org/2000/svg">
  <sodipodi:namedview
     id="namedview7"
     pagecolor="#ffffff"
     bordercolor="#000000"
     borderopacity="0.25"
     inkscape:showpageshadow="2"
     inkscape:pageopacity="0.0"
     inkscape:pagecheckerboard="0"
     inkscape:deskcolor="#d1d1d1"
     inkscape:document-units="mm"
     showgrid="true"
     inkscape:zoom="10.35098"
     inkscape:cx="16.665089"
     inkscape:cy="28.83785"
     inkscape:window-width="2400"
     inkscape:window-height="1271"
     inkscape:window-x="3191"
     inkscape:window-y="-9"
     inkscape:window-maximized="1"
     inkscape:current-layer="layer1">
    <inkscape:grid
       type="xygrid"
       id="grid111" />
  </sodipodi:namedview>
  <defs
     id="defs2" />
  <g
     inkscape:label="Layer 1"
     inkscape:groupmode="layer"
     id="layer1">
    <path
       id="path115"
       style="fill:#000000;stroke-width:0.265;stroke:none;stroke-opacity:1;stroke-dasharray:none;fill-opacity:1"
       d="M 9.7895833 0.10438639 L 9.7895833 0.91260579 A 7.6729169 7.6729169 0 0 1 16.020728 7.14375 L 16.828947 7.14375 A 8.4666662 8.4666662 0 0 0 9.7895833 0.10438639 z M 7.14375 0.10593669 A 8.4666662 8.4666662 0 0 0 0.10593669 7.14375 L 0.91260579 7.14375 A 7.6729169 7.6729169 0 0 1 7.14375 0.91260579 L 7.14375 0.10593669 z M 0.10593669 9.7895833 A 8.4666662 8.4666662 0 0 0 7.14375 16.827397 L 7.14375 16.020728 A 7.6729169 7.6729169 0 0 1 0.91260579 9.7895833 L 0.10593669 9.7895833 z M 16.020728 9.7895833 A 7.6729169 7.6729169 0 0 1 9.7895833 16.020728 L 9.7895833 16.828947 A 8.4666662 8.4666662 0 0 0 16.828947 9.7895833 L 16.020728 9.7895833 z " />
    <path
       id="path3955"
       style="fill:#ffffff;stroke-width:0.265;stroke:none;stroke-opacity:1;stroke-dasharray:none;fill-opacity:1"
       d="M 8.4666667 0 A 8.4666662 8.4666662 0 0 0 7.14375 0.10593669 L 7.14375 0.91260579 A 7.6729169 7.6729169 0 0 1 8.4666667 0.79375 A 7.6729169 7.6729169 0 0 1 9.7895833 0.91260579 L 9.7895833 0.10438639 A 8.4666662 8.4666662 0 0 0 8.4666667 0 z M 0.10593669 7.14375 A 8.4666662 8.4666662 0 0 0 0 8.4666667 A 8.4666662 8.4666662 0 0 0 0.10593669 9.7895833 L 0.91260579 9.7895833 A 7.6729169 7.6729169 0 0 1 0.79375 8.4666667 A 7.6729169 7.6729169 0 0 1 0.91260579 7.14375 L 0.10593669 7.14375 z M 16.020728 7.14375 A 7.6729169 7.6729169 0 0 1 16.139583 8.4666667 A 7.6729169 7.6729169 0 0 1 16.020728 9.7895833 L 16.828947 9.7895833 A 8.4666662 8.4666662 0 0 0 16.933333 8.4666667 A 8.4666662 8.4666662 0 0 0 16.828947 7.14375 L 16.020728 7.14375 z M 7.14375 16.020728 L 7.14375 16.827397 A 8.4666662 8.4666662 0 0 0 8.4666667 16.933333 A 8.4666662 8.4666662 0 0 0 9.7895833 16.828947 L 9.7895833 16.020728 A 7.6729169 7.6729169 0 0 1 8.4666667 16.139583 A 7.6729169 7.6729169 0 0 1 7.14375 16.020728 z " />
  </g>
</svg>
